<svg width="248" height="248" viewBox="0 0 248 248" fill="none" xmlns="http://www.w3.org/2000/svg">
<circle cx="4" cy="4" r="4" fill="#D6D6D6"/>
<circle cx="28" cy="4" r="4" fill="#D6D6D6"/>
<circle cx="52" cy="4" r="4" fill="#D6D6D6"/>
<circle cx="76" cy="4" r="4" fill="#D6D6D6"/>
<circle cx="100" cy="4" r="4" fill="#D6D6D6"/>
<circle cx="124" cy="4" r="4" fill="#D6D6D6"/>
<circle cx="148" cy="4" r="4" fill="#D6D6D6"/>
<circle cx="172" cy="4" r="4" fill="#D6D6D6"/>
<circle cx="196" cy="4" r="4" fill="#D6D6D6"/>
<circle cx="220" cy="4" r="4" fill="#D6D6D6"/>
<circle cx="244" cy="4" r="4" fill="#D6D6D6"/>
<circle cx="4" cy="28" r="4" fill="#D6D6D6"/>
<circle cx="28" cy="28" r="4" fill="#D6D6D6"/>
<circle cx="52" cy="28" r="4" fill="#D6D6D6"/>
<circle cx="76" cy="28" r="4" fill="#D6D6D6"/>
<circle cx="100" cy="28" r="4" fill="#D6D6D6"/>
<circle cx="124" cy="28" r="4" fill="#D6D6D6"/>
<circle cx="148" cy="28" r="4" fill="#D6D6D6"/>
<circle cx="172" cy="28" r="4" fill="#D6D6D6"/>
<circle cx="196" cy="28" r="4" fill="#D6D6D6"/>
<circle cx="220" cy="28" r="4" fill="#D6D6D6"/>
<circle cx="244" cy="28" r="4" fill="#D6D6D6"/>
<circle cx="4" cy="52" r="4" fill="#D6D6D6"/>
<circle cx="28" cy="52" r="4" fill="#D6D6D6"/>
<circle cx="52" cy="52" r="4" fill="#D6D6D6"/>
<circle cx="76" cy="52" r="4" fill="#D6D6D6"/>
<circle cx="100" cy="52" r="4" fill="#D6D6D6"/>
<circle cx="124" cy="52" r="4" fill="#D6D6D6"/>
<circle cx="148" cy="52" r="4" fill="#D6D6D6"/>
<circle cx="172" cy="52" r="4" fill="#D6D6D6"/>
<circle cx="196" cy="52" r="4" fill="#D6D6D6"/>
<circle cx="220" cy="52" r="4" fill="#D6D6D6"/>
<circle cx="244" cy="52" r="4" fill="#D6D6D6"/>
<circle cx="4" cy="76" r="4" fill="#D6D6D6"/>
<circle cx="28" cy="76" r="4" fill="#D6D6D6"/>
<circle cx="52" cy="76" r="4" fill="#D6D6D6"/>
<circle cx="76" cy="76" r="4" fill="#D6D6D6"/>
<circle cx="100" cy="76" r="4" fill="#D6D6D6"/>
<circle cx="124" cy="76" r="4" fill="#D6D6D6"/>
<circle cx="148" cy="76" r="4" fill="#D6D6D6"/>
<circle cx="172" cy="76" r="4" fill="#D6D6D6"/>
<circle cx="196" cy="76" r="4" fill="#D6D6D6"/>
<circle cx="220" cy="76" r="4" fill="#D6D6D6"/>
<circle cx="244" cy="76" r="4" fill="#D6D6D6"/>
<circle cx="4" cy="100" r="4" fill="#D6D6D6"/>
<circle cx="28" cy="100" r="4" fill="#D6D6D6"/>
<circle cx="52" cy="100" r="4" fill="#D6D6D6"/>
<circle cx="76" cy="100" r="4" fill="#D6D6D6"/>
<circle cx="100" cy="100" r="4" fill="#D6D6D6"/>
<circle cx="124" cy="100" r="4" fill="#D6D6D6"/>
<circle cx="148" cy="100" r="4" fill="#D6D6D6"/>
<circle cx="172" cy="100" r="4" fill="#D6D6D6"/>
<circle cx="196" cy="100" r="4" fill="#D6D6D6"/>
<circle cx="220" cy="100" r="4" fill="#D6D6D6"/>
<circle cx="244" cy="100" r="4" fill="#D6D6D6"/>
<circle cx="4" cy="124" r="4" fill="#D6D6D6"/>
<circle cx="28" cy="124" r="4" fill="#D6D6D6"/>
<circle cx="52" cy="124" r="4" fill="#D6D6D6"/>
<circle cx="76" cy="124" r="4" fill="#D6D6D6"/>
<circle cx="100" cy="124" r="4" fill="#D6D6D6"/>
<circle cx="124" cy="124" r="4" fill="#D6D6D6"/>
<circle cx="148" cy="124" r="4" fill="#D6D6D6"/>
<circle cx="172" cy="124" r="4" fill="#D6D6D6"/>
<circle cx="196" cy="124" r="4" fill="#D6D6D6"/>
<circle cx="220" cy="124" r="4" fill="#D6D6D6"/>
<circle cx="244" cy="124" r="4" fill="#D6D6D6"/>
<circle cx="4" cy="148" r="4" fill="#D6D6D6"/>
<circle cx="28" cy="148" r="4" fill="#D6D6D6"/>
<circle cx="52" cy="148" r="4" fill="#D6D6D6"/>
<circle cx="76" cy="148" r="4" fill="#D6D6D6"/>
<circle cx="100" cy="148" r="4" fill="#D6D6D6"/>
<circle cx="124" cy="148" r="4" fill="#D6D6D6"/>
<circle cx="148" cy="148" r="4" fill="#D6D6D6"/>
<circle cx="172" cy="148" r="4" fill="#D6D6D6"/>
<circle cx="196" cy="148" r="4" fill="#D6D6D6"/>
<circle cx="220" cy="148" r="4" fill="#D6D6D6"/>
<circle cx="244" cy="148" r="4" fill="#D6D6D6"/>
<circle cx="4" cy="172" r="4" fill="#D6D6D6"/>
<circle cx="28" cy="172" r="4" fill="#D6D6D6"/>
<circle cx="52" cy="172" r="4" fill="#D6D6D6"/>
<circle cx="76" cy="172" r="4" fill="#D6D6D6"/>
<circle cx="100" cy="172" r="4" fill="#D6D6D6"/>
<circle cx="124" cy="172" r="4" fill="#D6D6D6"/>
<circle cx="148" cy="172" r="4" fill="#D6D6D6"/>
<circle cx="172" cy="172" r="4" fill="#D6D6D6"/>
<circle cx="196" cy="172" r="4" fill="#D6D6D6"/>
<circle cx="220" cy="172" r="4" fill="#D6D6D6"/>
<circle cx="244" cy="172" r="4" fill="#D6D6D6"/>
<circle cx="4" cy="196" r="4" fill="#D6D6D6"/>
<circle cx="28" cy="196" r="4" fill="#D6D6D6"/>
<circle cx="52" cy="196" r="4" fill="#D6D6D6"/>
<circle cx="76" cy="196" r="4" fill="#D6D6D6"/>
<circle cx="100" cy="196" r="4" fill="#D6D6D6"/>
<circle cx="124" cy="196" r="4" fill="#D6D6D6"/>
<circle cx="148" cy="196" r="4" fill="#D6D6D6"/>
<circle cx="172" cy="196" r="4" fill="#D6D6D6"/>
<circle cx="196" cy="196" r="4" fill="#D6D6D6"/>
<circle cx="220" cy="196" r="4" fill="#D6D6D6"/>
<circle cx="244" cy="196" r="4" fill="#D6D6D6"/>
<circle cx="4" cy="220" r="4" fill="#D6D6D6"/>
<circle cx="28" cy="220" r="4" fill="#D6D6D6"/>
<circle cx="52" cy="220" r="4" fill="#D6D6D6"/>
<circle cx="76" cy="220" r="4" fill="#D6D6D6"/>
<circle cx="100" cy="220" r="4" fill="#D6D6D6"/>
<circle cx="124" cy="220" r="4" fill="#D6D6D6"/>
<circle cx="148" cy="220" r="4" fill="#D6D6D6"/>
<circle cx="172" cy="220" r="4" fill="#D6D6D6"/>
<circle cx="196" cy="220" r="4" fill="#D6D6D6"/>
<circle cx="220" cy="220" r="4" fill="#D6D6D6"/>
<circle cx="244" cy="220" r="4" fill="#D6D6D6"/>
<circle cx="4" cy="244" r="4" fill="#D6D6D6"/>
<circle cx="28" cy="244" r="4" fill="#D6D6D6"/>
<circle cx="52" cy="244" r="4" fill="#D6D6D6"/>
<circle cx="76" cy="244" r="4" fill="#D6D6D6"/>
<circle cx="100" cy="244" r="4" fill="#D6D6D6"/>
<circle cx="124" cy="244" r="4" fill="#D6D6D6"/>
<circle cx="148" cy="244" r="4" fill="#D6D6D6"/>
<circle cx="172" cy="244" r="4" fill="#D6D6D6"/>
<circle cx="196" cy="244" r="4" fill="#D6D6D6"/>
<circle cx="220" cy="244" r="4" fill="#D6D6D6"/>
<circle cx="244" cy="244" r="4" fill="#D6D6D6"/>
</svg>
