<svg width="248" height="312" viewBox="0 0 248 312" fill="none" xmlns="http://www.w3.org/2000/svg">
<circle cx="4" cy="4" r="4" fill="#D6D6D6"/>
<circle cx="28" cy="4" r="4" fill="#D6D6D6"/>
<circle cx="52" cy="4" r="4" fill="#D6D6D6"/>
<circle cx="76" cy="4" r="4" fill="#D6D6D6"/>
<circle cx="100" cy="4" r="4" fill="#D6D6D6"/>
<circle cx="124" cy="4" r="4" fill="#D6D6D6"/>
<circle cx="148" cy="4" r="4" fill="#D6D6D6"/>
<circle cx="172" cy="4" r="4" fill="#D6D6D6"/>
<circle cx="196" cy="4" r="4" fill="#D6D6D6"/>
<circle cx="220" cy="4" r="4" fill="#D6D6D6"/>
<circle cx="244" cy="4" r="4" fill="#D6D6D6"/>
<circle cx="4" cy="20" r="4" fill="#D6D6D6"/>
<circle cx="28" cy="20" r="4" fill="#D6D6D6"/>
<circle cx="52" cy="20" r="4" fill="#D6D6D6"/>
<circle cx="76" cy="20" r="4" fill="#D6D6D6"/>
<circle cx="100" cy="20" r="4" fill="#D6D6D6"/>
<circle cx="124" cy="20" r="4" fill="#D6D6D6"/>
<circle cx="148" cy="20" r="4" fill="#D6D6D6"/>
<circle cx="172" cy="20" r="4" fill="#D6D6D6"/>
<circle cx="196" cy="20" r="4" fill="#D6D6D6"/>
<circle cx="220" cy="20" r="4" fill="#D6D6D6"/>
<circle cx="244" cy="20" r="4" fill="#D6D6D6"/>
<circle cx="4" cy="36" r="4" fill="#D6D6D6"/>
<circle cx="28" cy="36" r="4" fill="#D6D6D6"/>
<circle cx="52" cy="36" r="4" fill="#D6D6D6"/>
<circle cx="76" cy="36" r="4" fill="#D6D6D6"/>
<circle cx="100" cy="36" r="4" fill="#D6D6D6"/>
<circle cx="124" cy="36" r="4" fill="#D6D6D6"/>
<circle cx="148" cy="36" r="4" fill="#D6D6D6"/>
<circle cx="172" cy="36" r="4" fill="#D6D6D6"/>
<circle cx="196" cy="36" r="4" fill="#D6D6D6"/>
<circle cx="220" cy="36" r="4" fill="#D6D6D6"/>
<circle cx="244" cy="36" r="4" fill="#D6D6D6"/>
<circle cx="4" cy="52" r="4" fill="#D6D6D6"/>
<circle cx="28" cy="52" r="4" fill="#D6D6D6"/>
<circle cx="52" cy="52" r="4" fill="#D6D6D6"/>
<circle cx="76" cy="52" r="4" fill="#D6D6D6"/>
<circle cx="100" cy="52" r="4" fill="#D6D6D6"/>
<circle cx="124" cy="52" r="4" fill="#D6D6D6"/>
<circle cx="148" cy="52" r="4" fill="#D6D6D6"/>
<circle cx="172" cy="52" r="4" fill="#D6D6D6"/>
<circle cx="196" cy="52" r="4" fill="#D6D6D6"/>
<circle cx="220" cy="52" r="4" fill="#D6D6D6"/>
<circle cx="244" cy="52" r="4" fill="#D6D6D6"/>
<circle cx="4" cy="68" r="4" fill="#D6D6D6"/>
<circle cx="28" cy="68" r="4" fill="#D6D6D6"/>
<circle cx="52" cy="68" r="4" fill="#D6D6D6"/>
<circle cx="76" cy="68" r="4" fill="#D6D6D6"/>
<circle cx="100" cy="68" r="4" fill="#D6D6D6"/>
<circle cx="124" cy="68" r="4" fill="#D6D6D6"/>
<circle cx="148" cy="68" r="4" fill="#D6D6D6"/>
<circle cx="172" cy="68" r="4" fill="#D6D6D6"/>
<circle cx="196" cy="68" r="4" fill="#D6D6D6"/>
<circle cx="220" cy="68" r="4" fill="#D6D6D6"/>
<circle cx="244" cy="68" r="4" fill="#D6D6D6"/>
<circle cx="4" cy="84" r="4" fill="#D6D6D6"/>
<circle cx="28" cy="84" r="4" fill="#D6D6D6"/>
<circle cx="52" cy="84" r="4" fill="#D6D6D6"/>
<circle cx="76" cy="84" r="4" fill="#D6D6D6"/>
<circle cx="100" cy="84" r="4" fill="#D6D6D6"/>
<circle cx="124" cy="84" r="4" fill="#D6D6D6"/>
<circle cx="148" cy="84" r="4" fill="#D6D6D6"/>
<circle cx="172" cy="84" r="4" fill="#D6D6D6"/>
<circle cx="196" cy="84" r="4" fill="#D6D6D6"/>
<circle cx="220" cy="84" r="4" fill="#D6D6D6"/>
<circle cx="244" cy="84" r="4" fill="#D6D6D6"/>
<circle cx="4" cy="100" r="4" fill="#D6D6D6"/>
<circle cx="28" cy="100" r="4" fill="#D6D6D6"/>
<circle cx="52" cy="100" r="4" fill="#D6D6D6"/>
<circle cx="76" cy="100" r="4" fill="#D6D6D6"/>
<circle cx="100" cy="100" r="4" fill="#D6D6D6"/>
<circle cx="124" cy="100" r="4" fill="#D6D6D6"/>
<circle cx="148" cy="100" r="4" fill="#D6D6D6"/>
<circle cx="172" cy="100" r="4" fill="#D6D6D6"/>
<circle cx="196" cy="100" r="4" fill="#D6D6D6"/>
<circle cx="220" cy="100" r="4" fill="#D6D6D6"/>
<circle cx="244" cy="100" r="4" fill="#D6D6D6"/>
<circle cx="4" cy="116" r="4" fill="#D6D6D6"/>
<circle cx="28" cy="116" r="4" fill="#D6D6D6"/>
<circle cx="52" cy="116" r="4" fill="#D6D6D6"/>
<circle cx="76" cy="116" r="4" fill="#D6D6D6"/>
<circle cx="100" cy="116" r="4" fill="#D6D6D6"/>
<circle cx="124" cy="116" r="4" fill="#D6D6D6"/>
<circle cx="148" cy="116" r="4" fill="#D6D6D6"/>
<circle cx="172" cy="116" r="4" fill="#D6D6D6"/>
<circle cx="196" cy="116" r="4" fill="#D6D6D6"/>
<circle cx="220" cy="116" r="4" fill="#D6D6D6"/>
<circle cx="244" cy="116" r="4" fill="#D6D6D6"/>
<circle cx="4" cy="132" r="4" fill="#D6D6D6"/>
<circle cx="28" cy="132" r="4" fill="#D6D6D6"/>
<circle cx="52" cy="132" r="4" fill="#D6D6D6"/>
<circle cx="76" cy="132" r="4" fill="#D6D6D6"/>
<circle cx="100" cy="132" r="4" fill="#D6D6D6"/>
<circle cx="124" cy="132" r="4" fill="#D6D6D6"/>
<circle cx="148" cy="132" r="4" fill="#D6D6D6"/>
<circle cx="172" cy="132" r="4" fill="#D6D6D6"/>
<circle cx="196" cy="132" r="4" fill="#D6D6D6"/>
<circle cx="220" cy="132" r="4" fill="#D6D6D6"/>
<circle cx="244" cy="132" r="4" fill="#D6D6D6"/>
<circle cx="4" cy="148" r="4" fill="#D6D6D6"/>
<circle cx="28" cy="148" r="4" fill="#D6D6D6"/>
<circle cx="52" cy="148" r="4" fill="#D6D6D6"/>
<circle cx="76" cy="148" r="4" fill="#D6D6D6"/>
<circle cx="100" cy="148" r="4" fill="#D6D6D6"/>
<circle cx="124" cy="148" r="4" fill="#D6D6D6"/>
<circle cx="148" cy="148" r="4" fill="#D6D6D6"/>
<circle cx="172" cy="148" r="4" fill="#D6D6D6"/>
<circle cx="196" cy="148" r="4" fill="#D6D6D6"/>
<circle cx="220" cy="148" r="4" fill="#D6D6D6"/>
<circle cx="244" cy="148" r="4" fill="#D6D6D6"/>
<circle cx="4" cy="164" r="4" fill="#D6D6D6"/>
<circle cx="28" cy="164" r="4" fill="#D6D6D6"/>
<circle cx="52" cy="164" r="4" fill="#D6D6D6"/>
<circle cx="76" cy="164" r="4" fill="#D6D6D6"/>
<circle cx="100" cy="164" r="4" fill="#D6D6D6"/>
<circle cx="124" cy="164" r="4" fill="#D6D6D6"/>
<circle cx="148" cy="164" r="4" fill="#D6D6D6"/>
<circle cx="172" cy="164" r="4" fill="#D6D6D6"/>
<circle cx="196" cy="164" r="4" fill="#D6D6D6"/>
<circle cx="220" cy="164" r="4" fill="#D6D6D6"/>
<circle cx="244" cy="164" r="4" fill="#D6D6D6"/>
<circle cx="4" cy="180" r="4" fill="#D6D6D6"/>
<circle cx="28" cy="180" r="4" fill="#D6D6D6"/>
<circle cx="52" cy="180" r="4" fill="#D6D6D6"/>
<circle cx="76" cy="180" r="4" fill="#D6D6D6"/>
<circle cx="100" cy="180" r="4" fill="#D6D6D6"/>
<circle cx="124" cy="180" r="4" fill="#D6D6D6"/>
<circle cx="148" cy="180" r="4" fill="#D6D6D6"/>
<circle cx="172" cy="180" r="4" fill="#D6D6D6"/>
<circle cx="196" cy="180" r="4" fill="#D6D6D6"/>
<circle cx="220" cy="180" r="4" fill="#D6D6D6"/>
<circle cx="244" cy="180" r="4" fill="#D6D6D6"/>
<circle cx="4" cy="196" r="4" fill="#D6D6D6"/>
<circle cx="28" cy="196" r="4" fill="#D6D6D6"/>
<circle cx="52" cy="196" r="4" fill="#D6D6D6"/>
<circle cx="76" cy="196" r="4" fill="#D6D6D6"/>
<circle cx="100" cy="196" r="4" fill="#D6D6D6"/>
<circle cx="124" cy="196" r="4" fill="#D6D6D6"/>
<circle cx="148" cy="196" r="4" fill="#D6D6D6"/>
<circle cx="172" cy="196" r="4" fill="#D6D6D6"/>
<circle cx="196" cy="196" r="4" fill="#D6D6D6"/>
<circle cx="220" cy="196" r="4" fill="#D6D6D6"/>
<circle cx="244" cy="196" r="4" fill="#D6D6D6"/>
<circle cx="4" cy="212" r="4" fill="#D6D6D6"/>
<circle cx="28" cy="212" r="4" fill="#D6D6D6"/>
<circle cx="52" cy="212" r="4" fill="#D6D6D6"/>
<circle cx="76" cy="212" r="4" fill="#D6D6D6"/>
<circle cx="100" cy="212" r="4" fill="#D6D6D6"/>
<circle cx="124" cy="212" r="4" fill="#D6D6D6"/>
<circle cx="148" cy="212" r="4" fill="#D6D6D6"/>
<circle cx="172" cy="212" r="4" fill="#D6D6D6"/>
<circle cx="196" cy="212" r="4" fill="#D6D6D6"/>
<circle cx="220" cy="212" r="4" fill="#D6D6D6"/>
<circle cx="244" cy="212" r="4" fill="#D6D6D6"/>
<circle cx="4" cy="228" r="4" fill="#D6D6D6"/>
<circle cx="28" cy="228" r="4" fill="#D6D6D6"/>
<circle cx="52" cy="228" r="4" fill="#D6D6D6"/>
<circle cx="76" cy="228" r="4" fill="#D6D6D6"/>
<circle cx="100" cy="228" r="4" fill="#D6D6D6"/>
<circle cx="124" cy="228" r="4" fill="#D6D6D6"/>
<circle cx="148" cy="228" r="4" fill="#D6D6D6"/>
<circle cx="172" cy="228" r="4" fill="#D6D6D6"/>
<circle cx="196" cy="228" r="4" fill="#D6D6D6"/>
<circle cx="220" cy="228" r="4" fill="#D6D6D6"/>
<circle cx="244" cy="228" r="4" fill="#D6D6D6"/>
<circle cx="4" cy="244" r="4" fill="#D6D6D6"/>
<circle cx="28" cy="244" r="4" fill="#D6D6D6"/>
<circle cx="52" cy="244" r="4" fill="#D6D6D6"/>
<circle cx="76" cy="244" r="4" fill="#D6D6D6"/>
<circle cx="100" cy="244" r="4" fill="#D6D6D6"/>
<circle cx="124" cy="244" r="4" fill="#D6D6D6"/>
<circle cx="148" cy="244" r="4" fill="#D6D6D6"/>
<circle cx="172" cy="244" r="4" fill="#D6D6D6"/>
<circle cx="196" cy="244" r="4" fill="#D6D6D6"/>
<circle cx="220" cy="244" r="4" fill="#D6D6D6"/>
<circle cx="244" cy="244" r="4" fill="#D6D6D6"/>
<circle cx="4" cy="260" r="4" fill="#D6D6D6"/>
<circle cx="28" cy="260" r="4" fill="#D6D6D6"/>
<circle cx="52" cy="260" r="4" fill="#D6D6D6"/>
<circle cx="76" cy="260" r="4" fill="#D6D6D6"/>
<circle cx="100" cy="260" r="4" fill="#D6D6D6"/>
<circle cx="124" cy="260" r="4" fill="#D6D6D6"/>
<circle cx="148" cy="260" r="4" fill="#D6D6D6"/>
<circle cx="172" cy="260" r="4" fill="#D6D6D6"/>
<circle cx="196" cy="260" r="4" fill="#D6D6D6"/>
<circle cx="220" cy="260" r="4" fill="#D6D6D6"/>
<circle cx="244" cy="260" r="4" fill="#D6D6D6"/>
<circle cx="4" cy="276" r="4" fill="#D6D6D6"/>
<circle cx="28" cy="276" r="4" fill="#D6D6D6"/>
<circle cx="52" cy="276" r="4" fill="#D6D6D6"/>
<circle cx="76" cy="276" r="4" fill="#D6D6D6"/>
<circle cx="100" cy="276" r="4" fill="#D6D6D6"/>
<circle cx="124" cy="276" r="4" fill="#D6D6D6"/>
<circle cx="148" cy="276" r="4" fill="#D6D6D6"/>
<circle cx="172" cy="276" r="4" fill="#D6D6D6"/>
<circle cx="196" cy="276" r="4" fill="#D6D6D6"/>
<circle cx="220" cy="276" r="4" fill="#D6D6D6"/>
<circle cx="244" cy="276" r="4" fill="#D6D6D6"/>
<circle cx="4" cy="292" r="4" fill="#D6D6D6"/>
<circle cx="28" cy="292" r="4" fill="#D6D6D6"/>
<circle cx="52" cy="292" r="4" fill="#D6D6D6"/>
<circle cx="76" cy="292" r="4" fill="#D6D6D6"/>
<circle cx="100" cy="292" r="4" fill="#D6D6D6"/>
<circle cx="124" cy="292" r="4" fill="#D6D6D6"/>
<circle cx="148" cy="292" r="4" fill="#D6D6D6"/>
<circle cx="172" cy="292" r="4" fill="#D6D6D6"/>
<circle cx="196" cy="292" r="4" fill="#D6D6D6"/>
<circle cx="220" cy="292" r="4" fill="#D6D6D6"/>
<circle cx="244" cy="292" r="4" fill="#D6D6D6"/>
<circle cx="4" cy="308" r="4" fill="#D6D6D6"/>
<circle cx="28" cy="308" r="4" fill="#D6D6D6"/>
<circle cx="52" cy="308" r="4" fill="#D6D6D6"/>
<circle cx="76" cy="308" r="4" fill="#D6D6D6"/>
<circle cx="100" cy="308" r="4" fill="#D6D6D6"/>
<circle cx="124" cy="308" r="4" fill="#D6D6D6"/>
<circle cx="148" cy="308" r="4" fill="#D6D6D6"/>
<circle cx="172" cy="308" r="4" fill="#D6D6D6"/>
<circle cx="196" cy="308" r="4" fill="#D6D6D6"/>
<circle cx="220" cy="308" r="4" fill="#D6D6D6"/>
<circle cx="244" cy="308" r="4" fill="#D6D6D6"/>
</svg>
