<svg width="36" height="36" viewBox="0 0 36 36" fill="none" xmlns="http://www.w3.org/2000/svg">
<path fill-rule="evenodd" clip-rule="evenodd" d="M18 8.5C12.7533 8.5 8.5 12.7533 8.5 18C8.5 23.2467 12.7533 27.5 18 27.5C23.2467 27.5 27.5 23.2467 27.5 18C27.5 12.7533 23.2467 8.5 18 8.5ZM5.5 18C5.5 11.0964 11.0964 5.5 18 5.5C24.9036 5.5 30.5 11.0964 30.5 18C30.5 24.9036 24.9036 30.5 18 30.5C11.0964 30.5 5.5 24.9036 5.5 18Z" fill="black"/>
<path fill-rule="evenodd" clip-rule="evenodd" d="M18 27C22.9706 27 27 22.9706 27 18C27 13.0294 22.9706 9 18 9C13.0294 9 9 13.0294 9 18C9 22.9706 13.0294 27 18 27ZM18 29C24.0751 29 29 24.0751 29 18C29 11.9249 24.0751 7 18 7C11.9249 7 7 11.9249 7 18C7 24.0751 11.9249 29 18 29Z" fill="black"/>
<path d="M19 2C19 2.55228 18.5523 3 18 3C17.4477 3 17 2.55228 17 2C17 1.44772 17.4477 1 18 1C18.5523 1 19 1.44772 19 2Z" fill="black"/>
<path fill-rule="evenodd" clip-rule="evenodd" d="M20 2C20 3.10457 19.1046 4 18 4C16.8954 4 16 3.10457 16 2C16 0.89543 16.8954 0 18 0C19.1046 0 20 0.89543 20 2ZM18 3C18.5523 3 19 2.55228 19 2C19 1.44772 18.5523 1 18 1C17.4477 1 17 1.44772 17 2C17 2.55228 17.4477 3 18 3Z" fill="black"/>
<path d="M19 34C19 34.5523 18.5523 35 18 35C17.4477 35 17 34.5523 17 34C17 33.4477 17.4477 33 18 33C18.5523 33 19 33.4477 19 34Z" fill="black"/>
<path fill-rule="evenodd" clip-rule="evenodd" d="M20 34C20 35.1046 19.1046 36 18 36C16.8954 36 16 35.1046 16 34C16 32.8954 16.8954 32 18 32C19.1046 32 20 32.8954 20 34ZM18 35C18.5523 35 19 34.5523 19 34C19 33.4477 18.5523 33 18 33C17.4477 33 17 33.4477 17 34C17 34.5523 17.4477 35 18 35Z" fill="black"/>
<path d="M34 19C33.4477 19 33 18.5523 33 18C33 17.4477 33.4477 17 34 17C34.5523 17 35 17.4477 35 18C35 18.5523 34.5523 19 34 19Z" fill="black"/>
<path fill-rule="evenodd" clip-rule="evenodd" d="M34 20C32.8954 20 32 19.1046 32 18C32 16.8954 32.8954 16 34 16C35.1046 16 36 16.8954 36 18C36 19.1046 35.1046 20 34 20ZM33 18C33 18.5523 33.4477 19 34 19C34.5523 19 35 18.5523 35 18C35 17.4477 34.5523 17 34 17C33.4477 17 33 17.4477 33 18Z" fill="black"/>
<path d="M2 19C1.44772 19 1 18.5523 1 18C1 17.4477 1.44772 17 2 17C2.55228 17 3 17.4477 3 18C3 18.5523 2.55228 19 2 19Z" fill="black"/>
<path fill-rule="evenodd" clip-rule="evenodd" d="M2 20C0.89543 20 -4.82823e-08 19.1046 0 18C4.82823e-08 16.8954 0.895431 16 2 16C3.10457 16 4 16.8954 4 18C4 19.1046 3.10457 20 2 20ZM1 18C1 18.5523 1.44772 19 2 19C2.55228 19 3 18.5523 3 18C3 17.4477 2.55228 17 2 17C1.44772 17 1 17.4477 1 18Z" fill="black"/>
<path d="M28.8996 30.3138C28.509 29.9233 28.509 29.2901 28.8996 28.8996C29.2901 28.5091 29.9232 28.5091 30.3138 28.8996C30.7043 29.2901 30.7043 29.9233 30.3138 30.3138C29.9232 30.7043 29.2901 30.7043 28.8996 30.3138Z" fill="black"/>
<path fill-rule="evenodd" clip-rule="evenodd" d="M28.1924 31.0209C27.4114 30.2399 27.4114 28.9735 28.1924 28.1925C28.9735 27.4114 30.2398 27.4114 31.0208 28.1925C31.8019 28.9735 31.8019 30.2399 31.0208 31.0209C30.2398 31.802 28.9735 31.802 28.1924 31.0209ZM28.8996 28.8996C28.509 29.2901 28.509 29.9233 28.8996 30.3138C29.2901 30.7043 29.9232 30.7043 30.3138 30.3138C30.7043 29.9233 30.7043 29.2901 30.3138 28.8996C29.9232 28.5091 29.2901 28.5091 28.8996 28.8996Z" fill="black"/>
<path d="M4.6863 7.10042C4.29577 6.70989 4.29577 6.07673 4.6863 5.6862C5.07682 5.29568 5.70999 5.29568 6.10051 5.6862C6.49103 6.07673 6.49103 6.70989 6.10051 7.10042C5.70999 7.49094 5.07682 7.49094 4.6863 7.10042Z" fill="black"/>
<path fill-rule="evenodd" clip-rule="evenodd" d="M3.97916 7.80752C3.19811 7.02648 3.19811 5.76014 3.97916 4.9791C4.76021 4.19805 6.02654 4.19805 6.80759 4.9791C7.58864 5.76015 7.58864 7.02648 6.80759 7.80752C6.02654 8.58857 4.76021 8.58857 3.97916 7.80752ZM4.6863 5.6862C4.29577 6.07673 4.29577 6.70989 4.6863 7.10042C5.07682 7.49094 5.70999 7.49094 6.10051 7.10042C6.49103 6.70989 6.49103 6.07673 6.10051 5.6862C5.70999 5.29568 5.07682 5.29568 4.6863 5.6862Z" fill="black"/>
<path d="M5.6862 28.8994C6.07673 28.5089 6.70989 28.5089 7.10042 28.8994C7.49094 29.29 7.49094 29.9231 7.10042 30.3136C6.70989 30.7042 6.07673 30.7042 5.6862 30.3136C5.29568 29.9231 5.29568 29.29 5.6862 28.8994Z" fill="black"/>
<path fill-rule="evenodd" clip-rule="evenodd" d="M4.9791 28.1924C5.76015 27.4114 7.02648 27.4114 7.80752 28.1924C8.58857 28.9735 8.58857 30.2398 7.80752 31.0208C7.02648 31.8019 5.76015 31.8019 4.9791 31.0208C4.19805 30.2398 4.19805 28.9735 4.9791 28.1924ZM7.10042 28.8994C6.70989 28.5089 6.07673 28.5089 5.6862 28.8994C5.29568 29.29 5.29568 29.9231 5.6862 30.3136C6.07673 30.7042 6.70989 30.7042 7.10042 30.3136C7.49094 29.9231 7.49094 29.29 7.10042 28.8994Z" fill="black"/>
<path d="M27.8996 5.68605C28.2901 5.29553 28.9233 5.29553 29.3138 5.68605C29.7043 6.07658 29.7043 6.70974 29.3138 7.10027C28.9233 7.49079 28.2901 7.49079 27.8996 7.10027C27.5091 6.70974 27.5091 6.07658 27.8996 5.68605Z" fill="black"/>
<path fill-rule="evenodd" clip-rule="evenodd" d="M27.1925 4.97904C27.9735 4.19799 29.2399 4.19799 30.0209 4.97904C30.802 5.76009 30.802 7.02642 30.0209 7.80747C29.2399 8.58851 27.9735 8.58851 27.1925 7.80747C26.4114 7.02642 26.4114 5.76009 27.1925 4.97904ZM29.3138 5.68605C28.9233 5.29553 28.2901 5.29553 27.8996 5.68605C27.5091 6.07658 27.5091 6.70974 27.8996 7.10027C28.2901 7.49079 28.9233 7.49079 29.3138 7.10027C29.7043 6.70974 29.7043 6.07658 29.3138 5.68605Z" fill="black"/>
</svg>
