<svg width="24" height="24" viewBox="0 0 24 24" fill="none" xmlns="http://www.w3.org/2000/svg">
<path d="M12 0C5.372 0 0 5.373 0 12C0 18.627 5.372 24 12 24C18.628 24 24 18.627 24 12C24 5.373 18.628 0 12 0ZM21.885 11.441C19.31 11.019 16.942 10.996 14.782 11.368C14.538 10.805 14.285 10.243 14.015 9.688C16.325 8.688 18.18 7.33 19.563 5.606C20.913 7.2 21.76 9.225 21.885 11.441ZM18.043 4.159C16.838 5.713 15.175 6.942 13.057 7.839C12.041 5.978 10.879 4.163 9.569 2.401C10.348 2.204 11.16 2.087 12 2.087C14.275 2.087 16.368 2.866 18.043 4.159ZM7.527 3.166C8.858 4.908 10.038 6.704 11.064 8.547C8.634 9.262 5.733 9.629 2.38 9.652C3.072 6.817 4.981 4.459 7.527 3.166V3.166ZM2.087 12L2.1 11.744C5.949 11.739 9.269 11.296 12.05 10.422C12.283 10.897 12.506 11.374 12.72 11.854C9.34 12.911 6.555 15.076 4.383 18.334C2.951 16.615 2.087 14.407 2.087 12V12ZM5.916 19.81C7.885 16.722 10.398 14.712 13.514 13.783C14.442 16.203 15.123 18.693 15.557 21.243C12.208 22.534 8.604 21.909 5.916 19.81ZM17.502 20.24C17.064 17.887 16.422 15.587 15.582 13.343C17.458 13.078 19.522 13.147 21.781 13.539C21.344 16.325 19.753 18.731 17.502 20.24Z" fill="white"/>
</svg>
